<svg width="796" height="535" viewBox="0 0 796 535" fill="none" xmlns="http://www.w3.org/2000/svg">
<path d="M196.78 340.66H28.43L112.61 69L196.78 340.66ZM35.22 335.66H190L112.61 85.88L35.22 335.66Z" fill="#0A3087">
    <animateTransform attributeName="transform"
        type="translate"
        values="0 0; 0 50; 0 -50; 0 0;"
        begin="0s"
        dur="10s"
        repeatCount="indefinite"
    />
</path>
<path d="M112.61 401.25C174.61 401.25 224.92 366.88 224.92 324.49H0.299988C0.299988 366.88 50.58 401.25 112.61 401.25Z" fill="#0A3087">
    <animateTransform attributeName="transform"
        type="translate"
        values="0 0; 0 50; 0 -50; 0 0;"
        begin="0s"
        dur="10s"
        repeatCount="indefinite"
    />
</path>

<path d="M767.38 340.66H599L683.2 69L767.38 340.66ZM605.82 335.66H760.59L683.2 85.88L605.82 335.66Z" fill="#0A3087">
    <animateTransform attributeName="transform"
        type="translate"
        values="0 0; 0 -50; 0 50; 0 0;"
        begin="0s"
        dur="10s"
        repeatCount="indefinite"
    />
</path>
<path d="M683.21 401.25C621.21 401.25 570.89 366.88 570.89 324.49H795.52C795.52 366.88 745.23 401.25 683.21 401.25Z" fill="#0A3087">
    <animateTransform attributeName="transform"
        type="translate"
        values="0 0; 0 -50; 0 50; 0 0;"
        begin="0s"
        dur="10s"
        repeatCount="indefinite"
    />
</path>

<path d="M705.71 60.54C703.394 59.3792 700.856 58.7318 698.267 58.642C695.678 58.5523 693.1 59.0223 690.71 60.02C677.52 65.52 672.85 66.09 663.02 65.56C623.71 63.43 584.47 57.68 548.68 50.5C522.39 45.23 444.35 27.12 431.77 22.95C424.62 20.58 407.77 17.95 403.98 10.52C403.505 9.42015 403.111 8.28716 402.8 7.13004C402.036 4.92515 400.692 2.96664 398.91 1.46004C398.609 1.22261 398.271 1.03675 397.91 0.910034V0.910034C397.548 1.03675 397.211 1.22261 396.91 1.46004C395.128 2.96664 393.784 4.92515 393.02 7.13004C392.709 8.28716 392.315 9.42015 391.84 10.52C388 17.92 371.17 20.58 364 23C351.42 27.17 273.38 45.28 247.1 50.55C211.3 57.73 172.1 63.48 132.75 65.61C122.92 66.14 118.25 65.61 105.07 60.07C102.68 59.0723 100.102 58.6023 97.5132 58.692C94.9245 58.7818 92.3856 59.4292 90.07 60.59C85.52 62.97 82.52 68.68 84.42 73.44C86.61 78.93 93.61 79.44 98.7 79.44C106.08 79.51 113.48 79.14 120.85 78.62C135.43 77.57 149.95 75.76 164.51 74.53C192.51 72.16 341.51 51.99 388.06 48.05H407.67C454.23 51.99 603.2 72.16 631.22 74.53C645.78 75.76 660.3 77.53 674.88 78.62C682.25 79.14 689.65 79.51 697.03 79.44C702.12 79.38 709.12 78.9 711.31 73.44C713.25 68.63 710.25 62.92 705.71 60.54Z" fill="#0A3087">
    <animateTransform attributeName="transform"
        type="rotate"
        values="0 397.7 28.09; -9.42 397.7 28.09; 9.42 397.7 28.09; 0 397.7 28.09;"
        begin="0s"
        dur="10s"
        repeatCount="indefinite"
    />
</path>

<path d="M538.2 527.42L500.2 499.07L485 487.73C479.09 483.32 473.4 478.3 465.73 477.91C462.14 477.73 458.49 477.91 454.9 477.91H429.19H428.37L408.3 428.59C407.903 427.615 407.699 426.573 407.7 425.52V33.15H388.1V425.55C388.101 426.603 387.897 427.645 387.5 428.62L367.43 477.94H366.61H340.91C337.32 477.94 333.67 477.76 330.08 477.94C322.41 478.33 316.72 483.35 310.81 487.76L295.61 499.1L257.61 527.45C256.915 527.966 256.401 528.688 256.141 529.513C255.88 530.338 255.887 531.224 256.159 532.045C256.432 532.866 256.957 533.58 257.659 534.086C258.361 534.591 259.205 534.862 260.07 534.86H535.74C536.613 534.871 537.467 534.604 538.178 534.097C538.889 533.59 539.42 532.87 539.694 532.041C539.968 531.212 539.971 530.317 539.702 529.486C539.434 528.655 538.907 527.932 538.2 527.42Z" fill="#0A3087" />
</svg>
